<?xml version="1.0" standalone="no"?>
<!DOCTYPE svg PUBLIC "-//W3C//DTD SVG 20010904//EN"
 "http://www.w3.org/TR/2001/REC-SVG-20010904/DTD/svg10.dtd">
<svg version="1.0" xmlns="http://www.w3.org/2000/svg"
 width="512.000000pt" height="512.000000pt" viewBox="0 0 512.000000 512.000000"
 preserveAspectRatio="xMidYMid meet">
<metadata>
Created by potrace 1.15, written by Peter Selinger 2001-2017
</metadata>
<g transform="translate(0.000000,512.000000) scale(0.100000,-0.100000)"
fill="#000000" stroke="none">
<path d="M698 4465 c-87 -28 -143 -105 -178 -242 -42 -164 -51 -655 -16 -883
29 -185 94 -363 183 -498 54 -82 179 -209 270 -274 249 -180 646 -298 1085
-324 l117 -7 5 34 c3 19 7 69 10 112 8 115 33 277 63 402 14 61 27 122 30 137
9 49 -258 518 -439 771 -183 257 -374 464 -542 589 -206 154 -446 228 -588
183z"/>
<path d="M4206 4464 c-338 -75 -701 -417 -1071 -1008 -103 -163 -285 -496
-285 -519 0 -9 9 -49 20 -89 27 -99 67 -343 75 -453 11 -164 7 -155 73 -155
183 0 533 61 730 126 513 168 787 477 869 979 21 126 24 633 5 768 -27 184
-80 292 -165 336 -60 30 -157 36 -251 15z"/>
<path d="M2016 4138 c-9 -30 -26 -108 -26 -120 0 -7 31 -28 70 -46 178 -83
303 -292 375 -627 13 -60 29 -153 35 -205 11 -94 10 -97 -20 -190 -63 -192
-102 -420 -120 -692 -20 -320 25 -712 118 -1043 53 -184 106 -355 112 -355 3
0 29 78 58 173 131 432 173 692 174 1082 1 310 -40 600 -117 829 -35 104 -36
105 -25 193 44 365 158 650 312 776 42 34 141 87 164 87 19 0 -18 144 -38 148
-46 9 -204 -85 -281 -167 -91 -98 -199 -298 -232 -433 -4 -16 -11 -28 -15 -28
-4 0 -11 12 -15 28 -19 79 -92 240 -145 319 -75 114 -161 193 -266 244 -85 41
-112 47 -118 27z"/>
<path d="M1562 2100 c-149 -82 -329 -243 -442 -395 -75 -101 -160 -264 -199
-380 -133 -400 22 -651 420 -681 224 -17 433 62 602 225 119 115 205 252 266
425 27 75 30 94 21 125 -20 74 -50 310 -62 478 l-12 172 -41 5 c-22 3 -83 8
-135 12 -52 3 -153 14 -225 25 -71 10 -132 19 -135 19 -3 0 -29 -14 -58 -30z"/>
<path d="M3390 2115 c-41 -7 -136 -18 -210 -25 -74 -6 -153 -13 -175 -16 l-41
-5 -12 -177 c-12 -168 -42 -395 -62 -473 -9 -31 -5 -51 21 -125 61 -173 147
-310 266 -425 169 -163 379 -242 604 -225 452 34 589 367 348 848 -122 245
-348 485 -571 608 -59 33 -61 33 -168 15z"/>
</g>
</svg>
